<svg version="1" xmlns="http://www.w3.org/2000/svg" width="1200" height="1200" viewBox="0 0 900.000000 900.000000"><path d="M429 10.1c-100 48.2-180.6 83-221.5 95.7-38.1 11.8-103.8 27.5-176.8 42.2-5.6 1.1-5.8 1.3-5.3 3.8.3 1.5 2.9 17.5 5.7 35.7 13.5 88.1 32.5 190.3 49.4 267 27.7 124.8 55.2 210.2 80 248 27.2 41.5 92.1 91.3 191.5 147 22.9 12.8 95.3 49.5 97.8 49.5 3.7 0 67.2-32.2 102.9-52.1 71.4-40 124-76.9 159.6-112.2 20.7-20.5 30.1-33.9 42.3-60.2C786.7 605.3 823.4 457.4 857 261c6.6-38.6 18.1-111.2 17.7-111.7-.2-.1-14.5-3.1-31.8-6.7-72.2-14.8-121.3-26.7-156.9-38.1-39.1-12.4-94.7-36.5-193-83.7C470.2 9.8 451.1.7 450.5.5c-.5-.2-10.2 4.1-21.5 9.6zM290 437.5V698h-66V177h66v260.5zm311.6-2.5c38.1 141.5 69.6 258.7 69.9 260.2l.7 2.8-35.3-.2-35.2-.3-50.3-199C523.7 389 500.1 294.3 499 288c-1.2-6.3-2.2-11.6-2.4-11.7-.2-.2-1.1 4.5-2.1 10.4-2.9 18.1-52.1 212.7-55.9 221.3l-3.3 7.5h34.6c34.6 0 34.6 0 39.1 2.4 9.7 5.2 17.4 13.7 23.9 26.8 4.1 8.1 12.1 30.2 12.1 33.5 0 1.7-3.6 1.8-61.5 1.8h-61.4l-.9 3.2c-.5 1.8-7.1 28.4-14.8 59L392.5 698H325.8l.7-2.8c1-4.3 136.4-507.1 138.1-513l1.5-5.2 33.1.2 33 .3L601.6 435zm178.2-231.9l6.4 2.1-.6 4.2c-.3 2.2-1.5 12.6-2.7 23.1-1.2 10.4-2.3 19.2-2.5 19.4-.2.2-3.3-.4-6.9-1.4-9.3-2.5-19.7-1.7-25.8 1.8-13.9 8.2-23.6 28.3-26.7 55.2-.6 5.2-1 36.9-1 75.7V450h-41v-85.8c0-103.3-1.2-134.8-5.6-157l-.6-3.2h33.3l3.3 7.2c3.8 8.4 6.3 17 7.1 24.8.3 3 .9 7.1 1.2 9l.5 3.5 1.8-5.2c7.2-20.7 23.1-38.6 37.7-42.3 5.4-1.3 14.7-.4 22.1 2.1z"/></svg>